<svg preserveAspectRatio="none" width="100%" height="100%" overflow="visible" style="display: block;" viewBox="0 0 16 16" fill="none" xmlns="http://www.w3.org/2000/svg">
<g id="ai-idea">
<path id="Vector" d="M12.6667 6.41379C12.6667 8.13327 11.8201 9.4568 10.5322 10.3278C10.2322 10.5307 10.0822 10.6321 10.0081 10.7475C9.93413 10.8628 9.90887 11.0143 9.8584 11.3171L9.81913 11.5525C9.73047 12.0847 9.68613 12.3507 9.4996 12.5087C9.31313 12.6667 9.0434 12.6667 8.50393 12.6667H6.76293C6.22352 12.6667 5.95379 12.6667 5.7673 12.5087C5.5808 12.3507 5.53646 12.0847 5.44777 11.5525L5.40854 11.3171C5.35823 11.0153 5.33307 10.8643 5.25979 10.7495C5.18651 10.6347 5.03619 10.532 4.73555 10.3265C3.46127 9.45547 2.66667 8.1324 2.66667 6.41379C2.66667 3.60793 4.90524 1.33333 7.66667 1.33333C8.00913 1.33333 8.34353 1.36832 8.66667 1.43496" stroke="var(--stroke-0, white)" stroke-linecap="round" stroke-linejoin="round"/>
<path id="Vector_2" d="M11 1.33333L11.1719 1.79802C11.3974 2.40735 11.5101 2.71201 11.7324 2.93426C11.9547 3.15651 12.2593 3.26925 12.8687 3.49472L13.3333 3.66667L12.8687 3.83861C12.2593 4.06409 11.9547 4.17683 11.7324 4.39907C11.5101 4.62132 11.3974 4.92599 11.1719 5.53531L11 6L10.8281 5.53531C10.6026 4.92599 10.4899 4.62132 10.2676 4.39907C10.0453 4.17683 9.74067 4.06409 9.13133 3.83861L8.66667 3.66667L9.13133 3.49472C9.74067 3.26925 10.0453 3.15651 10.2676 2.93426C10.4899 2.71201 10.6026 2.40735 10.8281 1.79802L11 1.33333Z" stroke="var(--stroke-0, white)" stroke-linejoin="round"/>
<path id="Vector_3" d="M9 12.6667V13.3333C9 13.9619 9 14.2761 8.80473 14.4714C8.60947 14.6667 8.2952 14.6667 7.66667 14.6667C7.03813 14.6667 6.72387 14.6667 6.52859 14.4714C6.33333 14.2761 6.33333 13.9619 6.33333 13.3333V12.6667" stroke="var(--stroke-0, white)" stroke-linejoin="round"/>
</g>
</svg>
