<svg preserveAspectRatio="none" width="100%" height="100%" overflow="visible" style="display: block;" viewBox="0 0 23.9998 23.9999" fill="none" xmlns="http://www.w3.org/2000/svg">
<path id="Subtract" d="M8.80998 0.67465C10.4066 0.256909 11.7659 1.63172 11.766 3.28207C11.766 4.93235 10.3447 6.21122 8.90861 7.02426C8.77845 7.09794 8.65056 7.17663 8.5258 7.26059C7.56656 7.90625 6.81888 8.8246 6.37736 9.89828C5.93585 10.972 5.82025 12.1539 6.04533 13.2938C6.24907 14.3252 6.72349 15.281 7.41642 16.0623L5.4838 18.3397C5.1441 18.74 5.49467 19.093 5.89201 18.7508L8.17912 16.7801C8.8943 17.3419 9.73236 17.7304 10.6283 17.91C11.7597 18.1367 12.9327 18.0207 13.9985 17.576C15.0642 17.1313 15.9757 16.3781 16.6166 15.412C16.7075 15.2749 16.7927 15.1346 16.8715 14.9911C17.6598 13.555 18.9277 12.1474 20.5658 12.1473C22.2041 12.1473 23.5686 13.4959 23.1654 15.0838C22.8372 16.3765 22.2929 17.6111 21.5492 18.7323C20.2564 20.6812 18.4187 22.2004 16.269 23.0975C14.1191 23.9945 11.7534 24.2295 9.47111 23.7723C7.18877 23.315 5.0922 22.1857 3.44669 20.5282C1.80125 18.8706 0.680036 16.7589 0.225991 14.4598C-0.228005 12.1606 0.00537413 9.77698 0.895913 7.61117C1.78647 5.44541 3.295 3.59422 5.2299 2.29184C6.33088 1.55083 7.54193 1.00645 8.80998 0.67465ZM23.7026 0.0750405C23.919 -0.111126 24.1102 0.0815593 23.9252 0.29965L22.3705 2.1307C20.3633 4.49478 19.7754 7.36008 20.9477 9.06137L21.8549 10.3788C21.9629 10.5358 21.672 10.8292 21.516 10.7205L20.2074 9.80649C18.5186 8.6258 15.6742 9.21823 13.3276 11.2401L11.5102 12.8065C11.2935 12.9931 11.1022 12.8001 11.2875 12.5819L12.8422 10.7508C14.8492 8.38685 15.4372 5.52141 14.2651 3.82016L13.3578 2.50277C13.2496 2.34571 13.5408 2.05207 13.6967 2.16098L15.0053 3.07504C16.6942 4.25566 19.5385 3.66345 21.8852 1.64145L23.7026 0.0750405Z" fill="var(--fill-0, white)"/>
</svg>
