<svg preserveAspectRatio="none" width="100%" height="100%" overflow="visible" style="display: block;" viewBox="0 0 16 16" fill="none" xmlns="http://www.w3.org/2000/svg">
<g id="chat-question-01">
<path id="Vector" d="M8.00284 7.33333H8.00884M5.33919 7.33333H5.34517" stroke="var(--stroke-0, white)" stroke-width="1.33333" stroke-linecap="round" stroke-linejoin="round"/>
<path id="Vector_2" d="M14.6667 8.83313C14.6109 10.4155 14.5569 11.2066 13.9133 11.8551C13.2697 12.5035 12.4562 12.5383 10.8291 12.6079C10.3399 12.6288 9.8332 12.6445 9.31287 12.6543C8.8188 12.6637 8.57173 12.6684 8.35467 12.7511C8.1376 12.8337 7.955 12.9903 7.58967 13.3035L6.13669 14.5495C6.04849 14.6251 5.93613 14.6667 5.81994 14.6667C5.55119 14.6667 5.33333 14.4488 5.33333 14.1801V12.6146C5.27895 12.6124 5.22477 12.6102 5.17079 12.6079C3.54379 12.5383 2.7303 12.5035 2.08671 11.855C1.44313 11.2066 1.41521 10.4155 1.35939 8.83313C1.34231 8.3488 1.33333 7.8472 1.33333 7.33333C1.33333 6.81947 1.34231 6.31786 1.35939 5.83353C1.41521 4.25122 1.44313 3.46006 2.08671 2.81163C2.7303 2.16321 3.5438 2.1284 5.1708 2.05879C6.06345 2.0206 7.01393 2 8 2C8.4456 2 8.88387 2.00421 9.31287 2.01234" stroke="var(--stroke-0, white)" stroke-linecap="round" stroke-linejoin="round"/>
<path id="Vector_3" d="M12.9941 7.33333H13.0001" stroke="var(--stroke-0, white)" stroke-width="1.2" stroke-linecap="round" stroke-linejoin="round"/>
<path id="Vector_4" d="M11.3333 3C11.3333 2.07953 12.0795 1.33333 13 1.33333C13.9205 1.33333 14.6667 2.07953 14.6667 3C14.6667 3.69019 14.2471 4.2824 13.6491 4.53551C13.3101 4.67904 13 4.96515 13 5.33333" stroke="var(--stroke-0, white)" stroke-linecap="round" stroke-linejoin="round"/>
</g>
</svg>
