<svg width="1440" height="880" viewBox="0 0 1440 880" fill="none" xmlns="http://www.w3.org/2000/svg">
<mask id="path-1-inside-1_2_133" fill="white">
<path d="M1600 880C1600 764.437 1577.24 650.005 1533.01 543.239C1488.79 436.472 1423.97 339.462 1342.25 257.746C1260.54 176.03 1163.53 111.21 1056.76 66.986C949.995 22.7619 835.563 -5.05143e-06 720 0C604.437 5.05143e-06 490.005 22.7619 383.239 66.986C276.472 111.21 179.462 176.031 97.746 257.746C16.0304 339.462 -48.7899 436.472 -93.014 543.239C-137.238 650.005 -160 764.437 -160 880L720 880H1600Z"/>
</mask>
<path d="M1600 880C1600 764.437 1577.24 650.005 1533.01 543.239C1488.79 436.472 1423.97 339.462 1342.25 257.746C1260.54 176.03 1163.53 111.21 1056.76 66.986C949.995 22.7619 835.563 -5.05143e-06 720 0C604.437 5.05143e-06 490.005 22.7619 383.239 66.986C276.472 111.21 179.462 176.031 97.746 257.746C16.0304 339.462 -48.7899 436.472 -93.014 543.239C-137.238 650.005 -160 764.437 -160 880L720 880H1600Z" fill="white" fill-opacity="0.14" stroke="white" stroke-width="4" mask="url(#path-1-inside-1_2_133)"/>
</svg>
