<svg preserveAspectRatio="none" width="100%" height="100%" overflow="visible" style="display: block;" viewBox="0 0 40 39.643" fill="none" xmlns="http://www.w3.org/2000/svg">
<path id="Vector" d="M15.3418 14.43V10.6639C15.3418 10.3467 15.4608 10.1088 15.7382 9.95036L23.3102 5.58966C24.341 4.99507 25.57 4.71767 26.8383 4.71767C31.5955 4.71767 34.6085 8.40457 34.6085 12.3291C34.6085 12.6065 34.6085 12.9237 34.5687 13.2409L26.7193 8.64219C26.2437 8.36479 25.7678 8.36479 25.2922 8.64219L15.3418 14.43ZM33.0225 29.098V20.0989C33.0225 19.5437 32.7847 19.1474 32.309 18.8699L22.3587 13.0821L25.6093 11.2187C25.8868 11.0603 26.1248 11.0603 26.4022 11.2187L33.9742 15.5794C36.1547 16.8482 37.6213 19.5437 37.6213 22.16C37.6213 25.1729 35.8375 27.9482 33.0225 29.098ZM13.0029 21.1695L9.75217 19.2667C9.47477 19.1084 9.35577 18.8704 9.35577 18.5532V9.83174C9.35577 5.59004 12.6065 2.37874 17.007 2.37874C18.6722 2.37874 20.2178 2.93391 21.5265 3.92489L13.7168 8.44437C13.2412 8.72177 13.0032 9.11816 13.0032 9.67334L13.0029 21.1695ZM20 25.213L15.3418 22.5967V17.0467L20 14.4304L24.6578 17.0467V22.5967L20 25.213ZM22.993 37.2647C21.3278 37.2647 19.7822 36.7095 18.4735 35.7185L26.2832 31.199C26.7588 30.9217 26.9967 30.5252 26.9967 29.97V18.4735L30.2872 20.3764C30.5647 20.5347 30.6837 20.7727 30.6837 21.0899V29.8114C30.6837 34.053 27.3932 37.2647 22.993 37.2647ZM13.5975 28.4244L6.02547 24.0635C3.84493 22.7949 2.37835 20.0994 2.37835 17.483C2.37835 14.4304 4.20192 11.6951 7.01645 10.5453V19.5839C7.01645 20.139 7.25443 20.5355 7.73003 20.8129L17.641 26.5609L14.3902 28.4244C14.1128 28.5827 13.8749 28.5827 13.5975 28.4244ZM13.1617 34.9257C8.68198 34.9257 5.39147 31.556 5.39147 27.3935C5.39147 27.0764 5.43125 26.7592 5.47067 26.442L13.2803 30.9614C13.7559 31.2389 14.2318 31.2389 14.7074 30.9614L24.6578 25.2134V28.9795C24.6578 29.2967 24.5388 29.5347 24.2613 29.693L16.6893 34.0537C15.6586 34.6484 14.43 34.9257 13.1617 34.9257ZM22.993 39.643C27.7898 39.643 31.7937 36.2339 32.7058 31.7144C37.1457 30.5647 40 26.4022 40 22.1605C40 19.3854 38.8108 16.6899 36.67 14.7472C36.8683 13.9147 36.9873 13.0821 36.9873 12.2499C36.9873 6.58102 32.3885 2.33894 27.0763 2.33894C26.0062 2.33894 24.9753 2.49734 23.9447 2.85432C22.1605 1.10998 19.7025 0 17.007 0C12.2101 0 8.20638 3.40912 7.29422 7.92861C2.85433 9.07837 0 13.2409 0 17.4825C0 20.2577 1.18918 22.9532 3.32992 24.8959C3.13173 25.7284 3.01273 26.5609 3.01273 27.3932C3.01273 33.062 7.61142 37.304 12.9237 37.304C13.9939 37.304 15.0246 37.1457 16.0554 36.7887C17.8392 38.533 20.2972 39.643 22.993 39.643Z" fill="var(--fill-0, black)"/>
</svg>
