<svg preserveAspectRatio="none" width="100%" height="100%" overflow="visible" style="display: block;" viewBox="0 0 24 24" fill="none" xmlns="http://www.w3.org/2000/svg">
<g id="windsurf.svg">
<path id="Vector" d="M21.0292 6.72349H20.8551C19.9391 6.72206 19.1957 7.46391 19.1957 8.37982V12.0841C19.1957 12.8238 18.5843 13.423 17.8566 13.423C17.4243 13.423 16.9927 13.2055 16.7366 12.8402L12.9533 7.43681C12.6394 6.98812 12.1286 6.72063 11.5757 6.72063C10.7131 6.72063 9.93694 7.45392 9.93694 8.35915V12.0848C9.93694 12.8246 9.33054 13.4237 8.59786 13.4237C8.1641 13.4237 7.73318 13.2062 7.47706 12.841L3.24363 6.79411C3.14803 6.65714 2.9333 6.72492 2.9333 6.89184V10.1225C2.9333 10.2858 2.98324 10.4442 3.07669 10.5783L7.24305 16.5281C7.4892 16.8798 7.85234 17.1409 8.27109 17.2358C9.31913 17.474 10.2837 16.6672 10.2837 15.6393V11.9158C10.2837 11.1761 10.8829 10.5769 11.6228 10.5769H11.6249C12.0708 10.5769 12.4888 10.7944 12.745 11.1596L16.5289 16.5624C16.8436 17.0118 17.328 17.2785 17.9059 17.2785C18.7876 17.2785 19.5432 16.5445 19.5432 15.64V11.9151C19.5432 11.1754 20.1424 10.5761 20.8822 10.5761H21.0299C21.1227 10.5761 21.1976 10.5012 21.1976 10.4085V6.89112C21.1976 6.7984 21.1227 6.72349 21.0299 6.72349H21.0292Z" fill="var(--fill-0, #0B100F)"/>
</g>
</svg>
